HIERARCHY
ROOT hip
{
  OFFSET 0 0 0
  CHANNELS 6 Xposition Yposition Zposition Zrotation Yrotation Xrotation
  JOINT abdomen
  {
    OFFSET 0 20.6881 -0.73152
    CHANNELS 3 Zrotation Xrotation Yrotation
    JOINT chest
    {
      OFFSET 0 11.7043 -0.48768
      CHANNELS 3 Zrotation Xrotation Yrotation
      JOINT neck
      {
        OFFSET 0 22.1894 -2.19456
        CHANNELS 3 Zrotation Xrotation Yrotation
        JOINT head
        {
          OFFSET -0.24384 7.07133 1.2192
          CHANNELS 3 Zrotation Xrotation Yrotation
          JOINT leftEye
          {
            OFFSET 4.14528 8.04674 8.04672
            CHANNELS 3 Zrotation Xrotation Yrotation
            End Site
            {
              OFFSET 1 0 0
            }
          }
          JOINT rightEye
          {
            OFFSET -3.6576 8.04674 8.04672
            CHANNELS 3 Zrotation Xrotation Yrotation
            End Site
            {
              OFFSET 1 0 0
            }
          }
        }
      }
      JOINT rCollar
      {
        OFFSET -2.68224 19.2634 -4.8768
        CHANNELS 3 Zrotation Xrotation Yrotation
        JOINT rShldr
        {
          OFFSET -8.77824 -1.95073 1.46304
          CHANNELS 3 Zrotation Xrotation Yrotation
          JOINT rForeArm
          {
            OFFSET -28.1742 -1.7115 0.48768
            CHANNELS 3 Zrotation Xrotation Yrotation
            JOINT rHand
            {
              OFFSET -22.5879 0.773209 7.07136
              CHANNELS 3 Zrotation Xrotation Yrotation
              JOINT rThumb1
              {
                OFFSET -1.2192 -0.487915 3.41376
                CHANNELS 3 Zrotation Xrotation Yrotation
                JOINT rThumb2
                {
                  OFFSET -3.37035 -0.52449 3.41376
                  CHANNELS 3 Zrotation Xrotation Yrotation
                  End Site
                  {
                    OFFSET -1.78271 -1.18214 1.43049
                  }
                }
              }
              JOINT rIndex1
              {
                OFFSET -7.75947 0.938293 5.60832
                CHANNELS 3 Zrotation Xrotation Yrotation
                JOINT rIndex2
                {
                  OFFSET -2.54057 -0.884171 1.56538
                  CHANNELS 3 Zrotation Xrotation Yrotation
                  End Site
                  {
                    OFFSET -1.62519 -0.234802 1.16502
                  }
                }
              }
              JOINT rMid1
              {
                OFFSET -8.24714 1.18213 3.41376
                CHANNELS 3 Zrotation Xrotation Yrotation
                JOINT rMid2
                {
                  OFFSET -3.10165 -0.590103 1.0647
                  CHANNELS 3 Zrotation Xrotation Yrotation
                  End Site
                  {
                    OFFSET -2.48547 -0.328903 0.83742
                  }
                }
              }
              JOINT rRing1
              {
                OFFSET -8.82822 0.546677 1.51678
                CHANNELS 3 Zrotation Xrotation Yrotation
                JOINT rRing2
                {
                  OFFSET -2.60934 -0.819778 -0.0198488
                  CHANNELS 3 Zrotation Xrotation Yrotation
                  End Site
                  {
                    OFFSET -2.33842 -0.294052 0.168128
                  }
                }
              }
              JOINT rPinky1
              {
                OFFSET -8.27202 -0.0477905 -0.4584
                CHANNELS 3 Zrotation Xrotation Yrotation
                JOINT rPinky2
                {
                  OFFSET -1.82734 -0.647385 -0.700984
                  CHANNELS 3 Zrotation Xrotation Yrotation
                  End Site
                  {
                    OFFSET -1.69225 -0.51767 -0.607171
                  }
                }
              }
            }
          }
        }
      }
      JOINT lCollar
      {
        OFFSET 2.68224 19.2634 -4.8768
        CHANNELS 3 Zrotation Xrotation Yrotation
        JOINT lShldr
        {
          OFFSET 8.77824 -1.95073 1.46304
          CHANNELS 3 Zrotation Xrotation Yrotation
          JOINT lForeArm
          {
            OFFSET 28.1742 -1.7115 0.48768
            CHANNELS 3 Zrotation Xrotation Yrotation
            JOINT lHand
            {
              OFFSET 22.5879 0.773209 7.07136
              CHANNELS 3 Zrotation Xrotation Yrotation
              JOINT lThumb1
              {
                OFFSET 1.2192 -0.487915 3.41376
                CHANNELS 3 Zrotation Xrotation Yrotation
                JOINT lThumb2
                {
                  OFFSET 3.37035 -0.52449 3.41376
                  CHANNELS 3 Zrotation Xrotation Yrotation
                  End Site
                  {
                    OFFSET 1.78271 -1.18214 1.43049
                  }
                }
              }
              JOINT lIndex1
              {
                OFFSET 7.75947 0.938293 5.60832
                CHANNELS 3 Zrotation Xrotation Yrotation
                JOINT lIndex2
                {
                  OFFSET 2.54057 -0.884171 1.56538
                  CHANNELS 3 Zrotation Xrotation Yrotation
                  End Site
                  {
                    OFFSET 1.62519 -0.234802 1.16502
                  }
                }
              }
              JOINT lMid1
              {
                OFFSET 8.24714 1.18213 3.41376
                CHANNELS 3 Zrotation Xrotation Yrotation
                JOINT lMid2
                {
                  OFFSET 3.10165 -0.590103 1.0647
                  CHANNELS 3 Zrotation Xrotation Yrotation
                  End Site
                  {
                    OFFSET 2.48547 -0.328903 0.83742
                  }
                }
              }
              JOINT lRing1
              {
                OFFSET 8.82822 0.546677 1.51678
                CHANNELS 3 Zrotation Xrotation Yrotation
                JOINT lRing2
                {
                  OFFSET 2.60934 -0.819778 -0.0198488
                  CHANNELS 3 Zrotation Xrotation Yrotation
                  End Site
                  {
                    OFFSET 2.33842 -0.294052 0.168128
                  }
                }
              }
              JOINT lPinky1
              {
                OFFSET 8.27202 -0.0477905 -0.4584
                CHANNELS 3 Zrotation Xrotation Yrotation
                JOINT lPinky2
                {
                  OFFSET 1.82734 -0.647385 -0.700984
                  CHANNELS 3 Zrotation Xrotation Yrotation
                  End Site
                  {
                    OFFSET 1.69225 -0.51767 -0.607171
                  }
                }
              }
            }
          }
        }
      }
    }
  }
  JOINT rButtock
  {
    OFFSET -8.77824 4.35084 1.2192
    CHANNELS 3 Zrotation Xrotation Yrotation
    JOINT rThigh
    {
      OFFSET 0 -1.70687 -2.19456
      CHANNELS 3 Zrotation Xrotation Yrotation
      JOINT rShin
      {
        OFFSET 0 -36.8199 0.73152
        CHANNELS 3 Zrotation Xrotation Yrotation
        JOINT rFoot
        {
          OFFSET 0.73152 -45.1104 -5.12064
          CHANNELS 3 Zrotation Xrotation Yrotation
          End Site
          {
            OFFSET -1.1221 -3.69964 12.103
          }
        }
      }
    }
  }
  JOINT lButtock
  {
    OFFSET 8.77824 4.35084 1.2192
    CHANNELS 3 Zrotation Xrotation Yrotation
    JOINT lThigh
    {
      OFFSET 0 -1.70687 -2.19456
      CHANNELS 3 Zrotation Xrotation Yrotation
      JOINT lShin
      {
        OFFSET 0 -36.8199 0.73152
        CHANNELS 3 Zrotation Xrotation Yrotation
        JOINT lFoot
        {
          OFFSET -0.73152 -45.1104 -5.12064
          CHANNELS 3 Zrotation Xrotation Yrotation
          End Site
          {
            OFFSET 1.1221 -3.69964 12.103
          }
        }
      }
    }
  }
}
MOTION
Frames:	7
Frame Time:	0.00833333
-143.745 72.8578 25.4639 0.0 0.0 0.0 0.984358 -0.00436092 0.0272515 0.271546 -0.00455343 0.0470447 3.38099e-14 -7.95139e-16 1.49088e-16 1.01986e-13 3.18055e-15 3.85145e-16 -0.0 0.0 0.0 -0.0 0.0 0.0 1.71443e-14 -2.40716e-17 2.48481e-16 3.59491e-13 -5.77718e-16 3.37934e-15 6.16267e-12 -1.86023e-12 -4.45278e-14 7.04868e-11 1.75216e-12 4.07111e-13 1.66276e-10 -2.356e-13 7.79236e-13 2.87138e-10 -4.0393e-13 1.33742e-12 1.66282e-10 -2.36554e-13 7.76055e-13 7.73091 5.47488 0.417314 1.66276e-10 -2.36156e-13 7.85597e-13 2.90554 0.965183 0.102902 1.66283e-10 -2.3556e-13 7.80826e-13 10.2786 0.731801 0.0259123 1.6627e-10 -2.33373e-13 7.91958e-13 2.22167 -0.733487 -0.20892 1.70478e-14 -2.21303e-17 -9.93923e-17 3.55156e-13 -4.78326e-16 1.78906e-15 6.15373e-12 1.82663e-12 -9.54166e-15 7.04824e-11 -1.93701e-12 3.88028e-13 1.66254e-10 -2.39561e-13 7.85597e-13 2.87129e-10 -4.16653e-13 1.35174e-12 1.66249e-10 -2.38542e-13 7.95139e-13 -7.73091 5.47488 -0.417314 1.66255e-10 -2.39436e-13 7.85597e-13 -2.90554 0.965183 -0.102902 1.66245e-10 -2.39337e-13 7.82416e-13 -10.2786 0.731801 -0.0259123 1.66258e-10 -2.37746e-13 7.76055e-13 -2.22167 -0.733487 0.20892 -2.03217e-16 0.0 -3.88251e-19 1.24879 -5.45298 -0.109162 6.94767e-05 4.32234 0.0238824 -0.510636 1.12951 0.0812298 2.03217e-16 0.0 3.88251e-19 0.249633 -1.91924 0.0129238 0.00928392 -2.07855 0.0766867 0.496293 3.99654 -0.137951
-145.228 69.2248 12.3276 173.88 -0.2168 -168.135 -0.0578239 12.5025 0.632972 -0.0554151 -3.45248 -0.415439 0.172862 -3.22796 0.731694 -3.14667 -3.51785 0.824375 -0.0 0.0 0.0 -0.0 0.0 0.0 -1.06605e-14 9.26832e-16 -3.25809e-14 20.2098 7.08045 4.92858 -17.8334 -15.3779 15.0617 0.0375427 -4.30718 -0.599205 2.33161e-10 -2.02934e-10 -5.88169e-11 4.02845e-10 -3.52159e-10 -9.97163e-11 2.33166e-10 -2.02935e-10 -5.88216e-11 7.73091 5.47488 0.417314 2.3316e-10 -2.02935e-10 -5.8815e-11 2.90554 0.965183 0.102902 2.33169e-10 -2.02935e-10 -5.88177e-11 10.2786 0.731801 0.0259123 2.33151e-10 -2.02925e-10 -5.88108e-11 2.22167 -0.733487 -0.20892 -1.07065e-14 9.28188e-16 -3.28721e-14 -21.755 9.10712 -9.00634 17.1898 -14.6643 -14.9833 -0.190909 -9.72037 1.29623 1.83575e-10 2.40868e-10 -1.1906e-11 3.16923e-10 4.13922e-10 -1.85221e-11 1.83571e-10 2.40868e-10 -1.18975e-11 -7.73091 5.47488 -0.417314 1.83577e-10 2.40868e-10 -1.1904e-11 -2.90554 0.965183 -0.102902 1.83568e-10 2.40868e-10 -1.19066e-11 -10.2786 0.731801 -0.0259123 1.8358e-10 2.40872e-10 -1.19118e-11 -2.22167 -0.733487 0.20892 -2.03217e-16 0.0 -3.88251e-19 -5.87611 -19.096 -8.90818 0.162887 21.6419 0.324566 -0.599314 -3.09845 -2.03625 2.03217e-16 0.0 3.88251e-19 1.95495 -17.7678 4.16435 -0.0818756 15.7006 -0.191577 0.542843 1.01821 1.998
-145.433 69.1489 12.3354 174.026 -0.0678 -168.095 -1.45095 25.7107 1.40843 -0.464501 -7.08434 -0.942544 0.440192 -6.65149 1.50935 -6.36828 -7.20323 1.7043 -0.0 0.0 0.0 -0.0 0.0 0.0 -4.1615e-14 1.97753e-15 -6.98449e-14 40.1914 14.3994 10.3218 -27.3802 -27.979 34.3076 -0.0220221 -8.88736 -1.24802 3.1125e-10 -4.32579e-10 -1.12211e-10 5.37779e-10 -7.50163e-10 -1.89811e-10 3.11255e-10 -4.32579e-10 -1.12217e-10 7.73091 5.47488 0.417314 3.1125e-10 -4.32581e-10 -1.12214e-10 2.90554 0.965183 0.102902 3.11259e-10 -4.3258e-10 -1.12214e-10 10.2786 0.731801 0.0259123 3.11236e-10 -4.32561e-10 -1.12212e-10 2.22167 -0.733487 -0.20892 -4.1604e-14 1.97824e-15 -7.00747e-14 -41.6401 17.9756 -19.2025 26.6227 -26.7372 -33.8124 0.113551 -20.0023 2.79992 2.10649e-10 5.34378e-10 -3.25905e-11 3.63679e-10 9.19136e-10 -5.17966e-11 2.10646e-10 5.34379e-10 -3.25834e-11 -7.73091 5.47488 -0.417314 2.1065e-10 5.34379e-10 -3.25864e-11 -2.90554 0.965183 -0.102902 2.10643e-10 5.34379e-10 -3.25883e-11 -10.2786 0.731801 -0.0259123 2.10654e-10 5.34386e-10 -3.25921e-11 -2.22167 -0.733487 0.20892 -2.03217e-16 0.0 -3.88251e-19 -18.6522 -32.259 -20.4852 0.0805775 39.9526 0.776747 -1.03496 -7.55587 -4.30355 2.03217e-16 0.0 3.88251e-19 6.71458 -34.213 9.85514 0.0345349 34.4714 -0.558164 0.830367 -2.11223 4.24577
-145.711 69.0355 12.3368 174.021 -0.1126 -168.081 -3.11223 37.4969 2.26819 -0.878605 -10.3458 -1.36026 0.768895 -9.67751 2.22325 -9.13199 -10.5447 2.51089 -0.0 0.0 0.0 -0.0 0.0 0.0 -6.62699e-14 2.82864e-15 -9.82396e-14 56.8106 20.5919 15.6991 -28.6291 -32.4236 54.6815 -0.163564 -12.9158 -1.83908 3.6693e-10 -6.08332e-10 -1.78009e-10 6.34259e-10 -1.05567e-09 -3.01824e-10 3.66935e-10 -6.08331e-10 -1.78017e-10 7.73091 5.47488 0.417314 3.66929e-10 -6.08334e-10 -1.78016e-10 2.90554 0.965183 0.102902 3.6694e-10 -6.08333e-10 -1.78015e-10 10.2786 0.731801 0.0259123 3.66912e-10 -6.08307e-10 -1.78016e-10 2.22167 -0.733487 -0.20892 -6.62151e-14 2.82882e-15 -9.84174e-14 -56.3374 24.5046 -29.5629 28.2376 -31.166 -53.4914 0.907353 -29.0969 4.38745 2.18218e-10 7.23082e-10 -3.72891e-11 3.76511e-10 1.2426e-09 -5.82699e-11 2.18215e-10 7.23082e-10 -3.72829e-11 -7.73091 5.47488 -0.417314 2.18219e-10 7.23082e-10 -3.72833e-11 -2.90554 0.965183 -0.102902 2.18212e-10 7.23082e-10 -3.72845e-11 -10.2786 0.731801 -0.0259123 2.18223e-10 7.23091e-10 -3.72874e-11 -2.22167 -0.733487 0.20892 -2.03217e-16 0.0 -3.88251e-19 -35.7636 -41.5302 -34.408 -0.440495 56.2724 1.54436 -1.72771 -11.4903 -6.39085 2.03217e-16 0.0 3.88251e-19 15.1341 -48.1781 17.9674 0.466389 51.2536 -1.12896 1.30205 -4.90703 6.29144
-146.048 68.8517 12.37 173.915 -0.2969 -167.869 -4.63631 45.7498 2.90741 -1.16633 -12.6844 -1.48246 1.07357 -11.7158 2.75075 -10.9641 -13.0346 3.10004 -0.0 0.0 0.0 -0.0 0.0 0.0 -7.51759e-14 3.18075e-15 -1.04461e-13 67.711 24.5459 20.1816 -27.9982 -30.6019 68.2102 -0.306896 -15.5706 -2.2444 3.66585e-10 -6.49351e-10 -2.74819e-10 6.34599e-10 -1.12993e-09 -4.68634e-10 3.66591e-10 -6.49351e-10 -2.74829e-10 7.73091 5.47488 0.417314 3.66585e-10 -6.49353e-10 -2.74829e-10 2.90554 0.965183 0.102902 3.66596e-10 -6.49352e-10 -2.74825e-10 10.2786 0.731801 0.0259123 3.66567e-10 -6.49323e-10 -2.74829e-10 2.22167 -0.733487 -0.20892 -7.51103e-14 3.18075e-15 -1.0461e-13 -64.4941 27.8008 -37.862 27.8201 -29.6303 -66.6592 1.81654 -35.2846 5.70759 1.77025e-10 6.49768e-10 -2.02283e-12 3.04533e-10 1.11168e-09 2.25978e-12 1.77022e-10 6.49769e-10 -2.01647e-12 -7.73091 5.47488 -0.417314 1.77025e-10 6.49767e-10 -2.01647e-12 -2.90554 0.965183 -0.102902 1.77019e-10 6.49767e-10 -2.01727e-12 -10.2786 0.731801 -0.0259123 1.77029e-10 6.49778e-10 -2.01965e-12 -2.22167 -0.733487 0.20892 -2.03217e-16 0.0 -3.88251e-19 -51.0711 -45.7281 -46.3994 -1.49881 67.6206 2.73263 -2.38689 -14.1795 -7.90907 2.03217e-16 0.0 3.88251e-19 25.3607 -57.0222 27.4031 1.22226 63.0679 -1.94247 1.77449 -6.8957 7.80103
-146.295 68.7352 12.362 173.959 -0.2029 -167.848 -5.40378 49.0929 2.73954 -1.20621 -13.7526 -1.11911 1.29759 -12.359 3.01478 -11.6282 -14.3451 3.37285 -0.0 0.0 0.0 -0.0 0.0 0.0 -5.73273e-14 3.05784e-15 -7.42305e-14 71.9521 25.8093 22.8286 -27.9306 -28.7668 72.595 -0.357421 -16.2704 -2.35482 2.67647e-10 -4.74688e-10 -4.29595e-10 4.65822e-10 -8.34639e-10 -7.37672e-10 2.67654e-10 -4.74689e-10 -4.29607e-10 7.73091 5.47488 0.417314 2.67646e-10 -4.74688e-10 -4.29604e-10 2.90554 0.965183 0.102902 2.67657e-10 -4.74687e-10 -4.29601e-10 10.2786 0.731801 0.0259123 2.67631e-10 -4.74662e-10 -4.29601e-10 2.22167 -0.733487 -0.20892 -5.73116e-14 3.05818e-15 -7.43847e-14 -66.303 28.5189 -41.9692 27.7689 -27.9375 -70.9569 2.24947 -37.5397 6.26125 3.67971e-11 5.10278e-11 1.02802e-10 6.04663e-11 6.96698e-11 1.79104e-10 3.67928e-11 5.10323e-11 1.0281e-10 -7.73091 5.47488 -0.417314 3.67959e-11 5.10247e-11 1.02806e-10 -2.90554 0.965183 -0.102902 3.67903e-11 5.10247e-11 1.02806e-10 -10.2786 0.731801 -0.0259123 3.68016e-11 5.10368e-11 1.02803e-10 -2.22167 -0.733487 0.20892 -2.03217e-16 0.0 -3.88251e-19 -57.4488 -46.8211 -51.1716 -2.32616 72.011 3.60151 -2.69186 -15.1689 -8.55688 2.03217e-16 0.0 3.88251e-19 31.1305 -60.0799 32.7064 1.7912 67.9276 -2.52921 2.04206 -7.77608 8.53674
-146.42 68.7284 12.2969 174.194 0.2405 -168.094 -5.49093 48.9271 1.87159 -1.06105 -13.9111 -0.408526 1.44218 -12.0078 3.08424 -11.4825 -14.8149 3.41072 -0.0 0.0 0.0 -0.0 0.0 0.0 -2.05924e-14 2.58499e-15 -1.82199e-14 71.8075 25.3118 23.974 -27.8855 -28.7571 71.6713 -0.323972 -15.5762 -2.24822 9.92453e-11 -1.47253e-10 -6.25083e-10 1.77891e-10 -2.77557e-10 -1.07851e-09 9.92536e-11 -1.47256e-10 -6.25098e-10 7.73091 5.47488 0.417314 9.92427e-11 -1.47251e-10 -6.2509e-10 2.90554 0.965183 0.102902 9.92541e-11 -1.4725e-10 -6.25086e-10 10.2786 0.731801 0.0259123 9.92342e-11 -1.47235e-10 -6.25082e-10 2.22167 -0.733487 -0.20892 -2.06692e-14 2.58604e-15 -1.84031e-14 -64.1799 28.0287 -42.8237 27.709 -27.8761 -69.9716 2.15913 -36.9983 6.13252 -1.72705e-10 -9.15464e-10 2.56662e-10 -3.03981e-10 -1.61002e-09 4.37959e-10 -1.72711e-10 -9.15455e-10 2.56674e-10 -7.73091 5.47488 -0.417314 -1.72708e-10 -9.15471e-10 2.56664e-10 -2.90554 0.965183 -0.102902 -1.72713e-10 -9.15471e-10 2.56664e-10 -10.2786 0.731801 -0.0259123 -1.727e-10 -9.15458e-10 2.5666e-10 -2.22167 -0.733487 0.20892 -2.03217e-16 0.0 -3.88251e-19 -56.2543 -46.8902 -50.0001 -2.19931 71.4417 3.46993 -2.66827 -14.958 -8.55623 2.03217e-16 0.0 3.88251e-19 30.817 -59.6932 32.3876 1.76644 67.8251 -2.51058 2.11001 -7.87418 8.70882
